# xmcd CD database file
#
# Track frame offsets:
#	150
#	22335
#	45810
#	70373
#	95353
#	122016
#	144385
#
# Disc length: 2224 seconds
#
# Revision: 0
# Processed by: cddbd v1.5.2PL0 Copyright (c) Steve Scherf et al.
# Submitted via: CDex 1.70beta2
#
DISCID=5a08ae07
DTITLE=苫米地英人 - すごい夢実現CD
DYEAR=1900
DGENRE=New Age
TTITLE0=すごい夢実現1
TTITLE1=すごい夢実現2
TTITLE2=すごい夢実現3
TTITLE3=ダイエット・なりたい自分になる
TTITLE4=バストアップ・姿勢改善
TTITLE5=もてる・やる気が出てイライラ消える
TTITLE6=美肌になる・快眠
EXTD=
EXTT0=
EXTT1=
EXTT2=
EXTT3=
EXTT4=
EXTT5=
EXTT6=
PLAYORDER=
